<?xml version="1.0" standalone="no"?>
<!DOCTYPE svg PUBLIC "-//W3C//DTD SVG 20010904//EN"
 "http://www.w3.org/TR/2001/REC-SVG-20010904/DTD/svg10.dtd">
<svg version="1.0" xmlns="http://www.w3.org/2000/svg"
 width="500.000000pt" height="500.000000pt" viewBox="0 0 500.000000 500.000000"
 preserveAspectRatio="xMidYMid meet">

<g transform="translate(0.000000,500.000000) scale(0.100000,-0.100000)"
fill="#000000" stroke="none">
<path d="M1160 3902 c0 -5 7 -15 15 -22 8 -7 15 -17 15 -23 0 -6 13 -38 29
-71 34 -71 51 -125 81 -261 12 -55 28 -122 36 -149 8 -26 14 -54 14 -61 0 -23
61 -198 91 -259 73 -151 151 -247 294 -361 28 -22 59 -45 70 -51 11 -6 26 -22
34 -36 13 -22 11 -31 -22 -99 -19 -41 -56 -98 -81 -127 -25 -30 -46 -63 -46
-75 0 -23 23 -62 53 -92 25 -24 16 -67 -23 -112 -35 -40 -35 -37 -12 -60 11
-10 27 -32 37 -50 18 -31 18 -32 -8 -86 -15 -30 -27 -71 -27 -93 0 -45 17
-111 30 -119 27 -17 246 162 326 266 46 60 134 188 134 196 0 2 14 34 31 71
34 70 36 79 68 207 36 144 44 212 37 308 -17 215 -54 359 -139 526 -82 162
-262 372 -352 411 -11 5 -32 19 -46 32 -29 26 -167 98 -249 129 -112 43 -390
86 -390 61z"/>
<path d="M3675 3898 c-22 -5 -69 -16 -105 -25 -36 -8 -69 -18 -75 -23 -5 -4
-25 -10 -44 -14 -42 -8 -153 -62 -257 -126 -115 -70 -334 -296 -334 -345 0 -8
-5 -15 -10 -15 -6 0 -23 -26 -38 -57 -15 -32 -30 -60 -33 -63 -3 -3 -18 -41
-33 -85 -15 -44 -31 -89 -36 -100 -35 -77 -60 -361 -42 -470 28 -166 81 -326
143 -435 5 -8 12 -22 16 -30 3 -8 26 -41 50 -73 24 -31 43 -61 43 -65 0 -11
168 -172 220 -210 113 -83 149 -96 135 -52 -3 11 1 33 10 51 19 36 15 68 -15
131 -28 59 -26 99 8 134 l28 29 -31 40 c-48 59 -51 87 -17 127 33 38 52 71 52
90 0 7 -20 38 -45 68 -54 65 -105 163 -105 199 1 27 31 71 49 71 6 0 16 9 23
20 7 11 18 20 25 20 13 0 191 174 210 205 51 84 103 180 103 189 0 7 4 16 9
22 12 14 57 150 71 219 6 33 16 70 21 83 5 13 9 32 9 44 0 50 107 384 127 397
10 6 33 45 33 55 0 9 -121 5 -165 -6z"/>
<path d="M1383 1033 c-10 -4 -10 -10 2 -26 12 -17 15 -59 15 -214 0 -117 -4
-194 -10 -198 -24 -15 -6 -25 42 -25 50 0 52 1 30 16 -20 14 -22 23 -22 118 0
101 1 104 27 121 15 10 47 20 71 23 64 7 72 -7 72 -137 0 -83 -3 -108 -17
-123 -15 -17 -14 -18 40 -18 l57 0 -20 20 c-18 18 -20 33 -20 140 0 109 -2
122 -21 141 -17 17 -30 20 -66 16 -25 -3 -58 -14 -74 -26 -16 -12 -34 -19 -39
-16 -6 3 -10 42 -10 85 0 43 -3 85 -6 94 -6 16 -27 19 -51 9z"/>
<path d="M2281 1031 c-12 -8 -12 -12 2 -26 24 -24 25 -379 1 -413 -15 -22 -15
-22 42 -22 52 0 56 1 38 14 -17 13 -19 31 -24 233 -5 209 -6 218 -25 221 -11
1 -26 -2 -34 -7z"/>
<path d="M1090 970 c0 -5 6 -10 13 -10 8 0 22 -18 32 -40 10 -22 22 -37 26
-34 14 8 11 60 -3 71 -20 16 -68 25 -68 13z"/>
<path d="M2886 973 c-3 -3 1 -12 9 -20 12 -11 15 -48 15 -172 0 -145 -2 -161
-21 -185 l-20 -26 66 0 c66 0 67 0 46 18 -20 15 -22 25 -19 92 l3 75 112 3
112 3 7 -26 c12 -49 -2 -127 -26 -147 -22 -18 -21 -18 51 -18 71 1 73 1 47 16
l-28 15 0 164 c0 175 3 195 29 195 14 0 14 2 1 10 -8 5 -31 10 -50 10 -19 0
-42 -5 -50 -10 -13 -8 -13 -10 2 -10 23 0 30 -32 26 -111 l-3 -64 -117 -3
-118 -3 0 85 c0 70 3 87 18 95 9 6 13 11 7 12 -29 5 -95 6 -99 2z"/>
<path d="M968 953 c-15 -10 -32 -29 -38 -44 -24 -56 17 -111 116 -155 62 -27
107 -77 98 -108 -3 -11 -16 -31 -27 -43 -31 -35 3 -30 35 5 37 38 44 76 22
110 -22 33 -44 49 -115 83 -56 27 -99 69 -99 96 0 8 9 28 21 44 24 34 23 34
-13 12z"/>
<path d="M2581 937 c-7 -20 -23 -45 -37 -56 -29 -23 -30 -27 -4 -34 19 -5 20
-14 20 -125 0 -137 7 -152 68 -152 33 1 72 18 72 33 0 3 -15 4 -32 1 -58 -8
-63 2 -63 128 l0 113 44 5 c62 7 67 30 7 30 -43 0 -46 2 -47 28 0 15 -4 36 -8
47 -7 17 -10 15 -20 -18z"/>
<path d="M1944 880 c-37 -15 -91 -76 -98 -110 -25 -128 32 -209 141 -198 27 3
60 12 73 21 22 15 20 16 -46 11 -62 -5 -72 -3 -97 18 -20 16 -30 36 -34 66
l-6 42 74 1 c41 1 83 1 94 0 38 -2 48 13 41 62 -11 75 -75 114 -142 87z m78
-37 c10 -9 18 -30 18 -48 0 -30 -3 -33 -37 -39 -21 -3 -58 -6 -82 -6 l-43 0 6
33 c12 64 94 100 138 60z"/>
<path d="M3532 860 c-53 -38 -74 -79 -74 -145 -1 -92 47 -145 133 -145 35 0
99 23 99 35 0 2 -28 2 -63 -2 -57 -5 -66 -3 -91 18 -19 17 -29 37 -33 67 l-6
42 49 1 c27 1 58 2 69 3 11 1 37 3 58 4 32 2 37 5 37 27 0 38 -25 90 -51 109
-36 25 -81 20 -127 -14z m112 -22 c8 -13 16 -34 18 -48 3 -22 -2 -25 -37 -32
-22 -4 -60 -7 -84 -7 l-43 -1 6 32 c10 49 43 78 88 78 28 0 41 -6 52 -22z"/>
<path d="M3893 878 c-28 -14 -29 -24 -3 -31 19 -5 20 -14 20 -125 0 -70 -4
-123 -10 -127 -23 -14 -7 -25 40 -25 l50 0 -20 20 c-17 17 -20 33 -20 119 0
96 1 100 26 120 39 31 82 28 95 -6 13 -35 32 -17 27 28 -3 31 -6 34 -35 33
-18 -1 -44 -11 -59 -23 -34 -27 -42 -26 -54 4 -10 27 -22 30 -57 13z"/>
<path d="M916 655 c-14 -55 34 -86 128 -84 l51 1 -49 9 c-53 8 -91 37 -100 75
-8 31 -22 31 -30 -1z"/>
</g>
</svg>
